<svg width="50" height="42" viewBox="0 0 50 42" fill="none" xmlns="http://www.w3.org/2000/svg">
<g id="Component 1">
<path id="Vector" d="M23.0757 24.8182V36.2727C23.0757 37.8636 22.5188 39.2159 21.4052 40.3295C20.2915 41.4432 18.9392 42 17.3482 42H5.89343C4.30248 42 2.95017 41.4432 1.83651 40.3295C0.722847 39.2159 0.166016 37.8636 0.166016 36.2727V15.2727C0.166016 13.2045 0.568724 11.2308 1.37414 9.35156C2.17956 7.4723 3.26836 5.84659 4.64056 4.47443C6.01275 3.10227 7.6385 2.01349 9.5178 1.2081C11.3971 0.402699 13.3709 0 15.4391 0H17.3482C17.8653 0 18.3128 0.18892 18.6906 0.566761C19.0685 0.944602 19.2574 1.39205 19.2574 1.90909V5.72727C19.2574 6.24432 19.0685 6.69176 18.6906 7.0696C18.3128 7.44744 17.8653 7.63636 17.3482 7.63636H15.4391C13.3311 7.63636 11.5313 8.3821 10.0398 9.87358C8.54832 11.3651 7.80256 13.1648 7.80256 15.2727V16.2273C7.80256 17.0227 8.08098 17.6989 8.63781 18.2557C9.19464 18.8125 9.8708 19.0909 10.6663 19.0909H17.3482C18.9392 19.0909 20.2915 19.6477 21.4052 20.7614C22.5188 21.875 23.0757 23.2273 23.0757 24.8182ZM49.8036 24.8182V36.2727C49.8036 37.8636 49.2467 39.2159 48.1331 40.3295C47.0194 41.4432 45.6671 42 44.0762 42H32.6213C31.0304 42 29.6781 41.4432 28.5644 40.3295C27.4508 39.2159 26.8939 37.8636 26.8939 36.2727V15.2727C26.8939 13.2045 27.2966 11.2308 28.1021 9.35156C28.9075 7.4723 29.9963 5.84659 31.3685 4.47443C32.7407 3.10227 34.3664 2.01349 36.2457 1.2081C38.125 0.402699 40.0988 0 42.167 0H44.0762C44.5932 0 45.0407 0.18892 45.4185 0.566761C45.7964 0.944602 45.9853 1.39205 45.9853 1.90909V5.72727C45.9853 6.24432 45.7964 6.69176 45.4185 7.0696C45.0407 7.44744 44.5932 7.63636 44.0762 7.63636H42.167C40.059 7.63636 38.2593 8.3821 36.7677 9.87358C35.2762 11.3651 34.5305 13.1648 34.5305 15.2727V16.2273C34.5305 17.0227 34.8089 17.6989 35.3657 18.2557C35.9226 18.8125 36.5987 19.0909 37.3942 19.0909H44.0762C45.6671 19.0909 47.0194 19.6477 48.1331 20.7614C49.2467 21.875 49.8036 23.2273 49.8036 24.8182Z" fill="#FEFEFE"/>
</g>
</svg>
